<svg xmlns="http://www.w3.org/2000/svg" viewBox="0 0 649 156.8"><defs><style>.cls-1{fill:#e60073;}.cls-2{fill:#2a2c33;}</style></defs><title>foodGiving-NoShadow</title><g id="Layer_2" data-name="Layer 2"><g id="Layer_1-2" data-name="Layer 1"><path class="cls-1" d="M0,116.2V10.44A4.71,4.71,0,0,1,2.24,6.36,9.19,9.19,0,0,1,7.52,4.84H63.68A4.51,4.51,0,0,1,67.76,7a9.53,9.53,0,0,1,1.36,5.2,9.85,9.85,0,0,1-1.44,5.44,4.53,4.53,0,0,1-4,2.24H17V56.52h24.8a4.67,4.67,0,0,1,4,2A8.12,8.12,0,0,1,47.2,63.4,7.88,7.88,0,0,1,45.84,68a4.62,4.62,0,0,1-4.08,2H17V116.2a4.57,4.57,0,0,1-2.48,4.16,11.74,11.74,0,0,1-6,1.44,11.85,11.85,0,0,1-5.92-1.44A4.54,4.54,0,0,1,0,116.2Z"/><path class="cls-1" d="M55.49,90.24V75.52q0-12.64,9.76-22.08a33.53,33.53,0,0,1,46.56-.08q9.91,9.36,9.92,22.16V90.24q0,12.48-10,22.16t-23.12,9.68a32.3,32.3,0,0,1-23.2-9.6Q55.5,102.88,55.49,90.24Zm16.8,0a16.73,16.73,0,0,0,4.8,11.69,15.35,15.35,0,0,0,23,0,16.61,16.61,0,0,0,4.88-11.69V75.57a16.13,16.13,0,0,0-4.88-11.44,15.49,15.49,0,0,0-23,0,16.25,16.25,0,0,0-4.8,11.44Z"/><path class="cls-1" d="M129.44,90.24V75.52q0-12.64,9.76-22.08a33.53,33.53,0,0,1,46.56-.08q9.92,9.36,9.92,22.16V90.24q0,12.48-10,22.16t-23.12,9.68a32.3,32.3,0,0,1-23.2-9.6Q129.45,102.88,129.44,90.24Zm16.8,0a16.73,16.73,0,0,0,4.8,11.69,15.35,15.35,0,0,0,23,0,16.61,16.61,0,0,0,4.88-11.69V75.57A16.13,16.13,0,0,0,174,64.13a15.49,15.49,0,0,0-23,0,16.25,16.25,0,0,0-4.8,11.44Z"/><path class="cls-1" d="M203.52,90.24V75.52a32,32,0,0,1,8.4-22.24Q220.32,44,232.16,44a22.32,22.32,0,0,1,12.48,3.56A24.8,24.8,0,0,1,253,56.29V5.44a4.51,4.51,0,0,1,2.4-3.92A11.21,11.21,0,0,1,261.44,0a10.81,10.81,0,0,1,6,1.52,4.51,4.51,0,0,1,2.32,3.91V115.21q0,2.07-2.4,3.83a9.75,9.75,0,0,1-5.92,1.76,8.54,8.54,0,0,1-5.36-1.78,5,5,0,0,1-2.32-3.89v-5.66a22,22,0,0,1-8.72,8.89,25.39,25.39,0,0,1-13.36,3.72q-11.2,0-19.68-9.68A32.68,32.68,0,0,1,203.52,90.24Zm16.8,0a16.73,16.73,0,0,0,4.8,11.69A15,15,0,0,0,236.48,107a16.17,16.17,0,0,0,11.36-4.85Q253,97.35,253,93.85V75.57a15.51,15.51,0,0,0-5-11.92A16.23,16.23,0,0,0,236.64,59a15.37,15.37,0,0,0-11.44,5.09,16.13,16.13,0,0,0-4.88,11.44Z"/><path class="cls-2" d="M292.16,86.08V39.52q0-18.41,9.76-27t25.6-8.64q16.16,0,26.32,8.08T364,33.44c0,3.09-.67,5.23-2,6.4s-3.5,1.76-6.48,1.76q-8.32,0-8.48-5.6-1.77-17.12-19-17.12-18.88,0-18.88,20.64V86.08q0,20.64,18.88,20.64,9.12,0,14.08-5.14T347,86V72.8H330.88a4.66,4.66,0,0,1-4-2A7.94,7.94,0,0,1,325.44,66a7.76,7.76,0,0,1,1.44-4.58,4.59,4.59,0,0,1,4-2.06H358.4A5.25,5.25,0,0,1,362.48,61,5.88,5.88,0,0,1,364,65.12v21q0,18.4-9.84,27T328,121.76q-16.32,0-26.08-8.64T292.16,86.08Z"/><path class="cls-1" d="M448.51,115.45c4.12,0,6.72-1.13,7.68-3.36l26.88-45.8a7.73,7.73,0,0,0,.64-2.72c0-1.81-1.34-3.47-4-5a14.94,14.94,0,0,0-7-2.24,5,5,0,0,0-5.12,3.36l-19,31.16-19-31.16a5,5,0,0,0-5.12-3.36,14.94,14.94,0,0,0-7,2.24c-2.66,1.49-4,3.15-4,5a7.73,7.73,0,0,0,.64,2.72l26.88,45.8q1.44,3.34,7.62,3.36Z"/><path class="cls-2" d="M524,57.36a21.72,21.72,0,0,1,8.24-8.74,24.37,24.37,0,0,1,13.2-3.55q11.36,0,19.6,9.27a32.39,32.39,0,0,1,8.24,22.24v39.68a4.61,4.61,0,0,1-2.48,4.08,12.09,12.09,0,0,1-11.76,0,4.58,4.58,0,0,1-2.56-4.07V76.7a16.38,16.38,0,0,0-4.8-11.49,15.1,15.1,0,0,0-11.36-5.1,14.84,14.84,0,0,0-10.72,4.55Q525,69.21,525,76.7Z"/><path class="cls-2" d="M580,135.08q0-11.33,12.52-17.3c-4.73-2.15-7.08-5.7-7.08-10.65q0-7.09,7.53-12.25-9.62-7.36-9.61-20.16V70.24a24.15,24.15,0,0,1,8.24-18.88Q599.88,44,613.16,44q11.19,0,18.56,5.44,4.63-10.72,10.4-10.72a6.89,6.89,0,0,1,5,1.84A5.45,5.45,0,0,1,649,44.48a4.41,4.41,0,0,1-2.73,4,18.53,18.53,0,0,0-8,6.4,23.81,23.81,0,0,1,5.13,15.36v4.48a24.35,24.35,0,0,1-8.48,19q-8.49,7.51-21.76,7.52a29.56,29.56,0,0,1-11-1.92c-2,1.39-3,2.9-3,4.51,0,2.15,1.67,3.72,5,4.69a75.08,75.08,0,0,0,12.15,2.26,143.22,143.22,0,0,1,14.24,2.35,24,24,0,0,1,12.16,6.55q5.05,5,5.05,13.26,0,11.82-9.52,17.82t-24.08,6q-14.57,0-24.33-5.9T580,135.08Zm15.84-1.78a10.78,10.78,0,0,0,5,9.3q5,3.48,13,3.48c5.22,0,9.44-1.13,12.63-3.4a10.72,10.72,0,0,0,4.81-9.22,9,9,0,0,0-2.24-6.22,13.35,13.35,0,0,0-6.65-3.72A56,56,0,0,0,615,121.9q-3.12-.41-8.41-.73Q595.88,125.22,595.88,133.3Zm3.84-58.74q0,7,3.68,11.52a13.48,13.48,0,0,0,20,.08q3.68-4.39,3.68-11.44V70.24a16.75,16.75,0,0,0-3.68-11.12,12.47,12.47,0,0,0-10.08-4.4,12.27,12.27,0,0,0-9.92,4.4,16.7,16.7,0,0,0-3.68,11.12Z"/><path class="cls-1" d="M502.74,41.31a8.33,8.33,0,0,0,12.17,0,8.81,8.81,0,0,0,0-12.4,8.51,8.51,0,0,0-12.17,0,8.81,8.81,0,0,0,0,12.4Z"/><path class="cls-1" d="M522.51,47.51A11.21,11.21,0,0,0,516.43,46a10.76,10.76,0,0,0-6,1.52,4.53,4.53,0,0,0-2.32,3.92v7.15a32.47,32.47,0,0,1-14.84,10l-5.21,1.68q-1.92.81-2.6,3.7a9.68,9.68,0,0,0,.69,6.14,10.07,10.07,0,0,0,4,4.84,5.28,5.28,0,0,0,4.5.79,37.28,37.28,0,0,0,7.94-2.86c2.39-1.13,3.91-2.72,5.56-3.59v37q0,2.08,2.4,3.84a9.75,9.75,0,0,0,5.92,1.76,10.15,10.15,0,0,0,6-1.76q2.48-1.75,2.48-3.84V51.43A4.51,4.51,0,0,0,522.51,47.51Z"/><path class="cls-1" d="M381.82,41.31a8.33,8.33,0,0,0,12.17,0,8.81,8.81,0,0,0,0-12.4,8.51,8.51,0,0,0-12.17,0,8.81,8.81,0,0,0,0,12.4Z"/><path class="cls-1" d="M408.67,70.25l-5.21-1.68a32.44,32.44,0,0,1-14.83-10V51.43a4.54,4.54,0,0,0-2.33-3.92,10.76,10.76,0,0,0-6-1.52,11.21,11.21,0,0,0-6.08,1.52,4.53,4.53,0,0,0-2.4,3.92v64.8q0,2.08,2.48,3.84a10.15,10.15,0,0,0,6,1.76,9.73,9.73,0,0,0,5.92-1.76c1.6-1.17,2.41-2.45,2.41-3.84v-37c1.64.87,3.16,2.46,5.55,3.59a37.47,37.47,0,0,0,7.94,2.86,5.31,5.31,0,0,0,4.51-.79,10.19,10.19,0,0,0,4-4.84,9.74,9.74,0,0,0,.68-6.14Q410.6,71.05,408.67,70.25Z"/></g></g></svg>